<svg version="1.1" xmlns="http://www.w3.org/2000/svg" xmlns:xlink="http://www.w3.org/1999/xlink" x="0px" y="0px" viewBox="0 0 1000 1000" enable-background="new 0 0 1000 1000" xml:space="preserve">
<path d="M364,433.8l125.4-70.9l10.7-6l10.7,6L636,433.8V278.9h24.6v-42.5h-42.5L510.8,104.9V56.1H543V34.5h-32.2V10h-21.7v24.5H457v21.7h32.2v48.8L381.9,236.4h-42.5v42.5H364L364,433.8L364,433.8z M500,251.2c20.1,0,36.5,16.3,36.5,36.5c0,20.1-16.3,36.5-36.5,36.5c-20.1,0-36.5-16.3-36.5-36.5C463.5,267.5,479.9,251.2,500,251.2z"/><path d="M434.8,674.2l65.2-59.1l65.2,59.1v183.4H709V500L500,381.8L291,500v357.6h143.8V674.2z M500,479c27.2,0,49.3,22.1,49.3,49.3c0,27.2-22.1,49.3-49.3,49.3s-49.3-22.1-49.3-49.3C450.7,501,472.8,479,500,479z"/><rect x="207.4" y="936.9" width="585.1" height="53.1"/><polygon points="743.6,870.7 730.7,870.7 269.3,870.7 256.4,870.7 256.4,923.8 743.6,923.8 "/>
</svg>