<?xml version="1.0" encoding="utf-8"?>
<!-- Svg Vector Icons : http://www.onlinewebfonts.com/icon -->
<!DOCTYPE svg PUBLIC "-//W3C//DTD SVG 1.1//EN" "http://www.w3.org/Graphics/SVG/1.1/DTD/svg11.dtd">
<svg version="1.1" xmlns="http://www.w3.org/2000/svg" xmlns:xlink="http://www.w3.org/1999/xlink" x="0px" y="0px" viewBox="0 0 1000 1000" enable-background="new 0 0 1000 1000" xml:space="preserve">
<metadata> Svg Vector Icons : http://www.onlinewebfonts.com/icon </metadata>
<g><path d="M701.6,816.2c-197.3,0-329.7-159.8-329.7-309.1c0-155.7,98-323.3,313.3-323.3c94.4,0,173.4,30.1,228.5,87.1c50,51.6,78.4,124.7,76.1,195.7c-3.9,122.8-67.3,201.1-169.7,209.5c-35.1,3-61-5.5-76.8-24.9c-5-6.1-8.7-13-11.2-20.4c-50.5,46.9-126.3,59.1-172,9.9c-27.1-29.3-40.5-73.9-36.8-122.6c7.7-100.8,70.7-171.3,153.2-171.3c38.6,0,73.7,16,97.3,44.2c5.3-21.6,8.8-35.8,8.8-35.8c3.4-14,17.6-22.5,31.6-19.1c14,3.5,22.5,17.6,19,31.6c0,0-16.8,67.8-32.4,133.1c-0.9,4.8-2,9.7-3.5,14.5c-1.8,7.6-4,15-6.4,22.2c-8.7,31.2-17.1,68.7-7.3,80.7c4.1,5,15.8,7.1,32.1,5.8c101.8-8.4,120-103.3,121.8-159.1c1.8-57.1-21.2-116.1-61.5-157.7c-45.1-46.6-111.2-71.2-191-71.2c-180.4,0-261.1,136.1-261.1,271.1c0,124,111.5,256.8,277.5,256.8c134.8,0,207.6-64.6,208.3-65.3c10.8-9.7,27.2-8.9,36.9,1.8c9.7,10.7,8.9,27.2-1.8,36.9C941.4,740.6,856.4,816.2,701.6,816.2z M676.6,399c-54.8,0-95.5,49.4-101.1,123c-2.6,33.7,6,64.8,23,83.1c6.8,7.3,18.1,16,33.8,16c44.4,0,88.8-41.3,108.9-98.9c1.9-6.8,3.9-13.6,5.9-20.3c1-3.9,1.9-7.8,2.8-11.8c4.1-23.1-0.6-45.4-13.4-62.4C722.6,409.2,701.4,399,676.6,399z"/><path d="M711.9,816.2H36.1c-14.4,0-26.1-11.7-26.1-26.1V209.9c0-14.4,11.7-26.1,26.1-26.1c14.4,0,26.1,11.7,26.1,26.1v554h649.6c14.4,0,26.1,11.7,26.1,26.1C738,804.5,726.3,816.2,711.9,816.2z"/><path d="M294.8,487.7c-6.6,0-13.1-2.5-18.2-7.4L17.9,228.6c-7.6-7.4-10-18.7-5.9-28.6c4-9.8,13.5-16.3,24.2-16.3h649.1c14.4,0,26.1,11.7,26.1,26.1c0,14.4-11.7,26.1-26.1,26.1H100.4l212.6,206.8c10.3,10.1,10.5,26.6,0.6,36.9C308.4,485,301.6,487.7,294.8,487.7z"/></g>
</svg>