<svg xmlns="http://www.w3.org/2000/svg" width="57.563" height="80.179" viewBox="0 0 57.563 80.179"><g transform="translate(0 0)"><g transform="translate(0 35.645)"><path d="M479.832-144.572c-1.484.481-2.062.948-2.062,1.663a1.248,1.248,0,0,0,.77,1.1c.247.1.578.027,1.347-.275a5.76,5.76,0,0,1,1.319-.412,1.539,1.539,0,0,0,1.1-1.169,1.307,1.307,0,0,0-.4-.77C481.426-144.9,480.959-144.943,479.832-144.572Z" transform="translate(-456.704 144.834)"/><path d="M575.5-144.646a1.043,1.043,0,0,0,.082,1.636c.4.344.509.357,1.938.357,1.484,0,1.512,0,1.91-.4a1.327,1.327,0,0,0,.4-.7,1.62,1.62,0,0,0-.618-1.154,13.012,13.012,0,0,0-1.8-.082C575.913-144.99,575.816-144.977,575.5-144.646Z" transform="translate(-547.218 144.99)"/><path d="M675.186-144.646a1.044,1.044,0,0,0,.055,1.595c.4.4.426.4,1.938.4s1.54,0,1.938-.4a1.044,1.044,0,0,0,.055-1.595c-.316-.33-.412-.344-1.993-.344S675.5-144.977,675.186-144.646Z" transform="translate(-639.895 144.99)"/><path d="M17.369-95.376a8.447,8.447,0,0,0-5.731,3.725,10.352,10.352,0,0,0,.008,11.191c.393.6,6.508,7.6,6.68,7.662.082.033,6.041-6.688,6.573-7.425a9.865,9.865,0,0,0,1.776-5.812,9.766,9.766,0,0,0-1.032-4.609A9.162,9.162,0,0,0,21.372-94.8,8.3,8.3,0,0,0,17.369-95.376Zm2.112,4.306a4.482,4.482,0,0,1,2.554,2.038,4.676,4.676,0,0,1,.377,2.988,4.23,4.23,0,0,1-4.339,3.16A4.172,4.172,0,0,1,14.25-86.3,4.166,4.166,0,0,1,17.008-91,4.684,4.684,0,0,1,19.481-91.07Z" transform="translate(-10 115.039)"/><path d="M443.382-79.608c-.55.22-.742.673-.742,1.76a8.688,8.688,0,0,0,.151,1.622c.275,1.086,1.237,1.485,1.993.838.412-.357.412-.44.234-2.391-.082-.99-.179-1.333-.385-1.539A1.208,1.208,0,0,0,443.382-79.608Z" transform="translate(-424.048 84.281)"/><path d="M490.889.129a1.137,1.137,0,0,0-.151,1.595,4.22,4.22,0,0,0,2.639.742c.976.027,1.058,0,1.374-.357a1.1,1.1,0,0,0-.742-1.884,7.27,7.27,0,0,1-1.127-.151C491.424-.243,491.3-.243,490.889.129Z" transform="translate(-468.517 10.359)"/><path d="M590.085,5.457a1.217,1.217,0,0,0-.33,1.347c.247.633.825.811,2.419.756,1.278-.042,1.457-.069,1.773-.371a1.149,1.149,0,0,0,.069-1.581c-.275-.358-.316-.358-1.966-.358A4.332,4.332,0,0,0,590.085,5.457Z" transform="translate(-560.731 5.332)"/><path d="M689.611,5.553a1.107,1.107,0,0,0-.22,1.361c.3.563.962.742,2.515.687,1.1-.055,1.306-.1,1.608-.385a1.142,1.142,0,0,0,.041-1.636c-.289-.275-.468-.3-1.993-.3C690.078,5.278,689.858,5.305,689.611,5.553Z" transform="translate(-653.288 5.305)"/><path d="M789.485,5.572a1.019,1.019,0,0,0-.261,1.264,1.006,1.006,0,0,0,.633.618,7.683,7.683,0,0,0,3.216-.041A1.112,1.112,0,0,0,793.691,6c-.247-.646-.481-.715-2.268-.728C789.871,5.269,789.747,5.283,789.485,5.572Z" transform="translate(-746.112 5.314)"/><path d="M889.876,5.625A1.4,1.4,0,0,0,889.7,7.1c.151.289.646.494,1.443.633a5.455,5.455,0,0,1,1.072.357,1.152,1.152,0,0,0,1.814-.715c.234-.948-1.141-1.883-2.955-2.021C890.261,5.295,890.151,5.322,889.876,5.625Z" transform="translate(-839.492 5.261)"/><path d="M955.305,68.166c-.33.289-.357.44-.412,1.553a10.8,10.8,0,0,1-.151,1.512,1.144,1.144,0,0,0,.192.715,1.157,1.157,0,0,0,2.1-.33,7.785,7.785,0,0,0,.179-1.8c0-1.237-.013-1.306-.385-1.622A1.11,1.11,0,0,0,955.305,68.166Z" transform="translate(-900.07 -52.882)"/><path d="M882.693,148.123a7.424,7.424,0,0,1-1.278.247,2.107,2.107,0,0,0-1.278.426,1.14,1.14,0,0,0-.042,1.553c.247.316.371.357,1.209.357a4.75,4.75,0,0,0,2.735-.728.994.994,0,0,0,.3-.742c0-.646-.192-.948-.7-1.127S883.133,147.931,882.693,148.123Z" transform="translate(-830.426 -127.341)"/><path d="M580.388,153.831a1.081,1.081,0,0,0-.4,1.5,1.317,1.317,0,0,0,.426.5,13.616,13.616,0,0,0,1.842.082c1.512,0,1.636-.013,1.91-.316a1.172,1.172,0,0,0,.3-.8c-.013-.948-.509-1.223-2.3-1.223A3.288,3.288,0,0,0,580.388,153.831Z" transform="translate(-551.584 -132.54)"/><path d="M680.267,153.771a1.292,1.292,0,0,0-.578,1.278,2.016,2.016,0,0,0,.357.536c.261.289.4.316,1.952.316s1.69-.027,1.952-.316a1.982,1.982,0,0,0,.357-.536,1.248,1.248,0,0,0-.6-1.278A7.266,7.266,0,0,0,680.267,153.771Z" transform="translate(-644.371 -132.536)"/><path d="M780.623,153.787a1.185,1.185,0,0,0-.3,1.869c.289.275.467.3,1.938.3a7.714,7.714,0,0,0,1.855-.137,1.221,1.221,0,0,0,.426-.55,1.137,1.137,0,0,0-.564-1.443A7.891,7.891,0,0,0,780.623,153.787Z" transform="translate(-737.634 -132.592)"/><path d="M511.706,185.23A5.932,5.932,0,0,0,510.4,187.7c-.234,1.058.289,1.732,1.279,1.663a1.378,1.378,0,0,0,.975-1.045,5.568,5.568,0,0,1,.5-1.141c.495-.893.509-1.457.055-1.9A1.073,1.073,0,0,0,511.706,185.23Z" transform="translate(-486.984 -161.712)"/><path d="M527.375,277.053a1.257,1.257,0,0,0-.825,1.141c0,.412.11.605.728,1.2a5.267,5.267,0,0,0,2.309,1.416,1.577,1.577,0,0,0,.66-.357,1.114,1.114,0,0,0-.275-1.924,6.917,6.917,0,0,1-1-.728C528.145,277.026,527.828,276.889,527.375,277.053Z" transform="translate(-502.048 -247.268)"/><path d="M618.815,303.985a1.133,1.133,0,0,0-.275,1.828c.316.33.412.344,1.952.344,1.69-.013,1.91-.069,2.213-.646a.965.965,0,0,0-.234-1.292c-.4-.4-.426-.4-1.9-.4A6.022,6.022,0,0,0,618.815,303.985Z" transform="translate(-587.234 -272.207)"/><path d="M718.171,304.219a1.044,1.044,0,0,0-.055,1.595c.316.33.412.344,1.993.344s1.677-.013,1.993-.344a1.044,1.044,0,0,0-.055-1.595c-.4-.4-.426-.4-1.938-.4S718.57,303.82,718.171,304.219Z" transform="translate(-679.801 -272.207)"/><path d="M817.261,311.925a1.465,1.465,0,0,0-.536,1.306,1.974,1.974,0,0,0,.838.907,8.968,8.968,0,0,1,1.114.962,1.175,1.175,0,0,0,1.718.206c.852-.728.371-1.8-1.292-2.955C818.237,311.774,817.729,311.65,817.261,311.925Z" transform="translate(-771.771 -279.612)"/><path d="M844.142,395.906a1.844,1.844,0,0,0-.495.866,5.41,5.41,0,0,1-.563,1.169c-.7,1.045-.316,2.117.77,2.117.4,0,.578-.1.935-.509a5.893,5.893,0,0,0,1.182-2.515c.082-.481.042-.591-.33-.962A1.065,1.065,0,0,0,844.142,395.906Z" transform="translate(-795.958 -357.586)"/><path d="M251.809,454.479a.943.943,0,0,0,0,1.54c.4.4.426.4,2.007.4,1.512,0,1.608-.013,1.924-.344a1.146,1.146,0,0,0,0-1.65c-.316-.33-.412-.344-1.924-.344C252.235,454.08,252.207,454.08,251.809,454.479Z" transform="translate(-246.288 -411.883)"/><path d="M352.485,454.391a1.106,1.106,0,0,0,0,1.676c.344.3.5.33,1.952.33,1.5,0,1.595-.013,1.91-.344a1.146,1.146,0,0,0,0-1.65c-.316-.33-.412-.344-1.91-.344C352.98,454.061,352.828,454.089,352.485,454.391Z" transform="translate(-339.886 -411.865)"/><path d="M452.479,454.377a1.163,1.163,0,0,0-.014,1.7c.316.33.412.344,1.91.344,1.457,0,1.608-.027,1.952-.33a1.106,1.106,0,0,0,0-1.676c-.344-.3-.5-.33-1.924-.33C453.042,454.089,452.795,454.13,452.479,454.377Z" transform="translate(-432.842 -411.893)"/><path d="M552.264,454.424a1.161,1.161,0,0,0,0,1.65c.316.33.412.344,1.924.344,1.581,0,1.608,0,2.007-.4a.943.943,0,0,0,0-1.54c-.4-.4-.426-.4-2.007-.4C552.676,454.08,552.579,454.093,552.264,454.424Z" transform="translate(-525.631 -411.883)"/><path d="M651.708,454.424a1.3,1.3,0,0,0-.261,1.374c.179.454.811.618,2.323.618,1.429,0,1.471-.013,1.869-.4a.972.972,0,0,0,.247-1.292c-.234-.523-.687-.646-2.336-.646C652.134,454.08,652.023,454.093,651.708,454.424Z" transform="translate(-618.065 -411.883)"/><path d="M751.393,454.428a1.064,1.064,0,0,0-.206,1.333c.234.523.687.646,2.268.646,1.416,0,1.457-.013,1.855-.4a.943.943,0,0,0,0-1.54c-.4-.4-.426-.4-1.979-.4C751.819,454.071,751.751,454.084,751.393,454.428Z" transform="translate(-710.727 -411.874)"/></g><g transform="translate(32.3)"><path d="M586.874-501.806a.536.536,0,0,0-.023.843.53.53,0,0,0,.462.217.725.725,0,0,0,.7-.632.57.57,0,0,0-.22-.429.654.654,0,0,0-.462-.2A.654.654,0,0,0,586.874-501.806Z" transform="translate(-570.598 502.01)"/><path d="M546.4-451.776a.562.562,0,0,0-.023.885.676.676,0,0,0,.954-.035c.2-.19.227-.253.19-.478A.659.659,0,0,0,546.4-451.776Z" transform="translate(-531.711 453.805)"/><path d="M487.571-407.854a.943.943,0,0,0,.523,1.756,1.049,1.049,0,0,0,1.045-.934,1.059,1.059,0,0,0-.485-.829A1.2,1.2,0,0,0,487.571-407.854Z" transform="translate(-474.975 411.436)"/><path d="M589.041-362a.922.922,0,0,0-.561.829,1.01,1.01,0,0,0,1.81.6.929.929,0,0,0-.8-1.5A1.527,1.527,0,0,0,589.041-362Z" transform="translate(-572.348 367.198)"/><path d="M500.983-315.849a.935.935,0,0,0-.553.885,1.02,1.02,0,0,0,1.931.33A.981.981,0,0,0,500.983-315.849Z" transform="translate(-487.781 322.766)"/><path d="M186.756-289.25a54.556,54.556,0,0,0-2.227,6.109,12.4,12.4,0,0,0-.629,3.778,6.018,6.018,0,0,0,1.045,3.546c.939,1.8.992,1.966.985,2.879a14.208,14.208,0,0,1-.765,3.651c-.727,2.759-.773,2.921-.992,3.1l-.235.2-1.386-.042c-1.416-.035-1.8.007-1.8.218,0,.309.954.646,3.492,1.229a20.92,20.92,0,0,0,3.931.709c1.121,0,.773-.428-.909-1.13-1.136-.471-1.363-.639-1.363-1,0-.112.341-1.524.757-3.132.909-3.468.985-3.651,1.871-4.438a12.8,12.8,0,0,1,1.234-.941c.349-.232.879-.6,1.181-.822.879-.653,1.833-1.847,1.75-2.184-.341-1.369-.545-2.324-.765-3.63-.333-1.987-.674-4.424-.621-4.48.023-.021.841-.218,1.8-.435l1.765-.393.091-.6a1.805,1.805,0,0,0,.038-.632c-.053-.049-7.892-1.819-8.044-1.819C186.915-289.51,186.824-289.391,186.756-289.25Z" transform="translate(-180.75 297.305)"/><path d="M464.111-221.836c-1.144.26-2.962.674-4.037.913l-1.954.442.038.253c.022.14.144,1,.273,1.9a34.567,34.567,0,0,0,1.515,7.057,7.38,7.38,0,0,0,3.409,3.925,12.746,12.746,0,0,1,1.409,1.067c.773.716.9,1.046,1.772,4.375.417,1.6.757,3.005.757,3.125-.008.351-.212.505-1.212.92-1.485.618-1.924.927-1.621,1.137.273.19,1.181.077,3.439-.414,2.894-.625,4.378-1.075,4.5-1.37a.212.212,0,0,0-.068-.225c-.106-.1-.341-.112-1.629-.091-1.469.014-1.508.014-1.7-.14-.182-.147-.273-.442-.954-3.075a35.029,35.029,0,0,1-.8-3.476c-.068-.836.091-1.327.916-2.914a7.879,7.879,0,0,0,1.151-3.307,19.87,19.87,0,0,0-1.545-6.944,34.342,34.342,0,0,0-1.522-3.644Z" transform="translate(-447.145 232.58)"/></g></g></svg>