<svg xmlns="http://www.w3.org/2000/svg" width="57.947" height="70.428" viewBox="0 0 57.947 70.428"><path d="M479.861-144.569c-1.5.488-2.091.961-2.091,1.686a1.265,1.265,0,0,0,.781,1.115c.251.1.586.028,1.366-.279a5.841,5.841,0,0,1,1.338-.418,1.56,1.56,0,0,0,1.115-1.185,1.326,1.326,0,0,0-.4-.781C481.477-144.9,481-144.945,479.861-144.569Z" transform="translate(-456.409 170.104)"/><path d="M575.505-144.641a1.057,1.057,0,0,0,.083,1.658c.4.349.516.362,1.965.362,1.5,0,1.533,0,1.937-.4a1.345,1.345,0,0,0,.4-.711,1.643,1.643,0,0,0-.627-1.171,13.194,13.194,0,0,0-1.826-.084C575.924-144.99,575.826-144.976,575.505-144.641Z" transform="translate(-546.827 170.261)"/><path d="M675.191-144.641a1.058,1.058,0,0,0,.056,1.617c.4.4.432.4,1.965.4s1.561,0,1.965-.4a1.058,1.058,0,0,0,.056-1.617c-.321-.334-.418-.349-2.021-.349S675.512-144.976,675.191-144.641Z" transform="translate(-639.405 170.261)"/><path d="M17.165-95.378a8.213,8.213,0,0,0-5.572,3.622A10.065,10.065,0,0,0,11.6-80.876c.382.581,6.328,7.387,6.495,7.45.08.032,5.874-6.5,6.391-7.219A9.592,9.592,0,0,0,26.214-86.3a9.5,9.5,0,0,0-1-4.481,8.908,8.908,0,0,0-4.154-4.044A8.072,8.072,0,0,0,17.165-95.378Zm2.053,4.187A4.358,4.358,0,0,1,21.7-89.209a4.547,4.547,0,0,1,.366,2.905,4.113,4.113,0,0,1-4.218,3.072,4.057,4.057,0,0,1-3.717-3.319,4.051,4.051,0,0,1,2.682-4.577A4.554,4.554,0,0,1,19.218-91.191Z" transform="translate(-10 140.584)"/><path d="M443.393-79.607c-.558.223-.753.683-.753,1.784a8.806,8.806,0,0,0,.154,1.645c.279,1.1,1.254,1.506,2.021.85.418-.362.418-.446.237-2.425-.084-1-.181-1.352-.39-1.561A1.225,1.225,0,0,0,443.393-79.607Z" transform="translate(-423.788 109.616)"/><path d="M490.894.133a1.153,1.153,0,0,0-.154,1.617,4.279,4.279,0,0,0,2.676.753c.989.028,1.073,0,1.393-.362A1.114,1.114,0,0,0,494.058.23a7.372,7.372,0,0,1-1.143-.154C491.437-.244,491.312-.244,490.894.133Z" transform="translate(-468.209 35.772)"/><path d="M590.091,5.46a1.234,1.234,0,0,0-.334,1.366c.251.641.836.822,2.453.766,1.3-.042,1.477-.07,1.8-.376a1.165,1.165,0,0,0,.07-1.6c-.279-.363-.321-.363-1.993-.363A4.392,4.392,0,0,0,590.091,5.46Z" transform="translate(-560.326 30.751)"/><path d="M689.616,5.557a1.122,1.122,0,0,0-.223,1.38c.306.571.976.753,2.55.7,1.115-.056,1.324-.1,1.631-.39a1.158,1.158,0,0,0,.042-1.658c-.293-.279-.474-.306-2.021-.306C690.089,5.278,689.867,5.306,689.616,5.557Z" transform="translate(-652.784 30.724)"/><path d="M789.491,5.576a1.033,1.033,0,0,0-.265,1.282,1.02,1.02,0,0,0,.641.627,7.791,7.791,0,0,0,3.261-.041,1.128,1.128,0,0,0,.627-1.436c-.251-.655-.488-.725-2.3-.739C789.881,5.269,789.756,5.283,789.491,5.576Z" transform="translate(-745.51 30.733)"/><path d="M889.88,5.629a1.416,1.416,0,0,0-.181,1.491c.154.293.655.5,1.464.641a5.533,5.533,0,0,1,1.087.362,1.168,1.168,0,0,0,1.84-.725c.237-.961-1.157-1.909-3-2.049C890.271,5.294,890.159,5.322,889.88,5.629Z" transform="translate(-838.791 30.68)"/><path d="M955.313,68.17c-.334.293-.362.446-.418,1.575a10.911,10.911,0,0,1-.154,1.533,1.161,1.161,0,0,0,.2.725,1.173,1.173,0,0,0,2.133-.334,7.894,7.894,0,0,0,.181-1.826c0-1.254-.014-1.324-.39-1.645A1.126,1.126,0,0,0,955.313,68.17Z" transform="translate(-899.304 -27.402)"/><path d="M882.733,148.125a7.528,7.528,0,0,1-1.3.251,2.136,2.136,0,0,0-1.3.432,1.156,1.156,0,0,0-.042,1.575c.251.321.376.362,1.226.362a4.817,4.817,0,0,0,2.773-.739,1.008,1.008,0,0,0,.306-.753c0-.655-.195-.961-.711-1.143S883.179,147.93,882.733,148.125Z" transform="translate(-829.734 -101.781)"/><path d="M580.4,153.835a1.1,1.1,0,0,0-.4,1.519,1.335,1.335,0,0,0,.432.5,13.8,13.8,0,0,0,1.868.084c1.533,0,1.658-.014,1.937-.321a1.188,1.188,0,0,0,.306-.809c-.014-.961-.516-1.241-2.328-1.241A3.334,3.334,0,0,0,580.4,153.835Z" transform="translate(-551.188 -106.975)"/><path d="M680.276,153.774a1.31,1.31,0,0,0-.586,1.3,2.042,2.042,0,0,0,.362.544c.265.293.4.321,1.979.321s1.714-.028,1.979-.321a2.007,2.007,0,0,0,.362-.544,1.265,1.265,0,0,0-.613-1.3A7.367,7.367,0,0,0,680.276,153.774Z" transform="translate(-643.876 -106.97)"/><path d="M780.632,153.789a1.2,1.2,0,0,0-.306,1.9c.293.279.474.306,1.965.306a7.821,7.821,0,0,0,1.881-.139,1.238,1.238,0,0,0,.432-.558,1.153,1.153,0,0,0-.571-1.463A8,8,0,0,0,780.632,153.789Z" transform="translate(-737.041 -107.027)"/><path d="M511.725,185.233a6.014,6.014,0,0,0-1.324,2.509c-.237,1.073.293,1.756,1.3,1.686a1.4,1.4,0,0,0,.989-1.059,5.646,5.646,0,0,1,.5-1.157c.5-.906.516-1.477.056-1.923A1.088,1.088,0,0,0,511.725,185.233Z" transform="translate(-486.657 -136.116)"/><path d="M527.386,277.054a1.274,1.274,0,0,0-.836,1.157c0,.418.111.613.739,1.213a5.34,5.34,0,0,0,2.341,1.436,1.6,1.6,0,0,0,.669-.362,1.13,1.13,0,0,0-.279-1.951,7.013,7.013,0,0,1-1.018-.739C528.167,277.026,527.846,276.887,527.386,277.054Z" transform="translate(-501.705 -221.581)"/><path d="M618.824,303.987a1.149,1.149,0,0,0-.279,1.853c.321.334.418.349,1.979.349,1.714-.014,1.937-.07,2.244-.655a.978.978,0,0,0-.237-1.31c-.4-.4-.432-.4-1.923-.4A6.1,6.1,0,0,0,618.824,303.987Z" transform="translate(-586.8 -246.494)"/><path d="M718.177,304.224a1.058,1.058,0,0,0-.056,1.617c.321.334.418.349,2.021.349s1.7-.014,2.021-.349a1.059,1.059,0,0,0-.056-1.617c-.4-.4-.432-.4-1.965-.4S718.581,303.82,718.177,304.224Z" transform="translate(-679.269 -246.494)"/><path d="M817.269,311.927a1.485,1.485,0,0,0-.543,1.324,2,2,0,0,0,.85.92,9.1,9.1,0,0,1,1.129.976,1.191,1.191,0,0,0,1.742.209c.864-.739.376-1.826-1.31-3C818.258,311.774,817.743,311.649,817.269,311.927Z" transform="translate(-771.141 -253.89)"/><path d="M844.162,395.909a1.87,1.87,0,0,0-.5.878,5.492,5.492,0,0,1-.571,1.185c-.711,1.059-.321,2.146.781,2.146.4,0,.586-.1.948-.516a5.974,5.974,0,0,0,1.2-2.551c.084-.488.042-.6-.334-.976A1.08,1.08,0,0,0,844.162,395.909Z" transform="translate(-795.302 -331.781)"/><path d="M251.814,454.484a.956.956,0,0,0,0,1.561c.4.4.432.4,2.035.4,1.533,0,1.631-.014,1.951-.349a1.162,1.162,0,0,0,0-1.673c-.321-.334-.418-.349-1.951-.349C252.246,454.08,252.219,454.08,251.814,454.484Z" transform="translate(-246.216 -386.022)"/><path d="M352.49,454.4a1.121,1.121,0,0,0,0,1.7c.349.306.5.334,1.979.334,1.519,0,1.617-.014,1.937-.349a1.162,1.162,0,0,0,0-1.673c-.321-.334-.418-.349-1.937-.349C352.992,454.061,352.839,454.089,352.49,454.4Z" transform="translate(-339.715 -386.003)"/><path d="M452.484,454.381a1.179,1.179,0,0,0-.014,1.728c.321.334.418.349,1.937.349,1.477,0,1.631-.028,1.979-.334a1.121,1.121,0,0,0,0-1.7c-.349-.306-.5-.334-1.951-.334C453.055,454.089,452.8,454.131,452.484,454.381Z" transform="translate(-432.572 -386.031)"/><path d="M552.269,454.429a1.178,1.178,0,0,0,0,1.673c.321.334.418.349,1.951.349,1.6,0,1.631,0,2.035-.4a.956.956,0,0,0,0-1.561c-.4-.4-.432-.4-2.035-.4C552.686,454.08,552.589,454.094,552.269,454.429Z" transform="translate(-525.263 -386.022)"/><path d="M651.713,454.429a1.323,1.323,0,0,0-.265,1.393c.181.46.822.627,2.355.627,1.449,0,1.491-.014,1.9-.4a.986.986,0,0,0,.251-1.31c-.237-.53-.7-.655-2.369-.655C652.145,454.08,652.033,454.094,651.713,454.429Z" transform="translate(-617.599 -386.022)"/><path d="M751.4,454.433a1.079,1.079,0,0,0-.209,1.352c.237.53.7.655,2.3.655,1.436,0,1.478-.014,1.881-.4a.956.956,0,0,0,0-1.561c-.4-.4-.432-.4-2.007-.4C751.83,454.071,751.761,454.084,751.4,454.433Z" transform="translate(-710.162 -386.012)"/><g transform="translate(38.393)"><path d="M347.891,22.105,344.3,20.08l-.306-.171-.306.171L340.1,22.105V17.681h-.7V16.467h1.217l3.072-3.756V11.317h-.922V10.7h.922V10h.621v.7h.919v.62h-.922v1.394l3.072,3.753H348.6v1.214h-.7v4.424ZM344,16.889a1.043,1.043,0,1,0,1.045,1.043A1.044,1.044,0,0,0,344,16.889Z" transform="translate(-335.624 -10)"/><path d="M298.85,390.152l-1.867-1.688-1.867,1.688v5.239H291V385.176l5.983-3.376,5.983,3.376v10.214H298.85Zm-1.867-5.576a1.408,1.408,0,1,0,1.411,1.408A1.411,1.411,0,0,0,296.983,384.576Z" transform="translate(-288.61 -371.18)"/><rect width="16.75" height="1.517" transform="translate(0 26.475)"/><path d="M256.4,870.7h13.947v1.517H256.4Z" transform="translate(-255 -846.116)"/></g></svg>