<?xml version="1.0" encoding="utf-8"?>
<!-- Svg Vector Icons : http://www.onlinewebfonts.com/icon -->
<!DOCTYPE svg PUBLIC "-//W3C//DTD SVG 1.1//EN" "http://www.w3.org/Graphics/SVG/1.1/DTD/svg11.dtd">
<svg version="1.1" xmlns="http://www.w3.org/2000/svg" xmlns:xlink="http://www.w3.org/1999/xlink" x="0px" y="0px" viewBox="0 0 1000 1000" enable-background="new 0 0 1000 1000" xml:space="preserve">
<metadata> Svg Vector Icons : http://www.onlinewebfonts.com/icon </metadata>
<g><g transform="translate(0.000000,512.000000) scale(0.100000,-0.100000)"><path d="M3424.9,5007c-457.7-72.8-850.4-279.6-1176-622.5c-488.4-513.3-668.4-1227.7-480.7-1924.8c57.5-214.5,224.1-540.1,369.6-722.1c272-337.1,632-570.7,1064.9-691.4c164.7-46,212.6-51.7,517.1-51.7c398.4,1.9,540.1,30.6,859.9,183.9c882.9,419.4,1336.9,1390.5,1093.6,2344.3c-49.8,191.5-216.4,534.4-342.8,701c-275.8,362-679.9,628.2-1131.9,743.1C4012.9,5014.6,3608.8,5035.7,3424.9,5007z"/><path d="M8406.6,4386.4l-160.9-237.5l93.9-70.9c220.3-170.5,430.9-448.2,538.2-720.1c91.9-227.9,116.8-369.6,114.9-649.3c0-317.9-40.2-480.7-178.1-756.5c-113-224.1-249-398.4-425.2-545.8l-126.4-105.3l158.9-229.8c86.2-126.4,170.5-231.7,183.8-235.6c44.1-7.7,337.1,256.6,469.2,423.3c283.5,358.2,430.9,699.1,498,1147.2c105.3,718.2-164.7,1492-695.2,1988c-130.3,122.6-268.1,229.8-294.9,229.8C8575.1,4623.9,8494.6,4516.6,8406.6,4386.4z"/><path d="M7494.9,3955.5c-86.2-126.4-155.1-233.7-155.1-237.5c0-5.8,67-76.6,149.4-159c247.1-250.9,354.3-507.5,352.4-850.4c-1.9-325.6-120.7-601.4-360.1-835.1l-137.9-136l160.8-233.7c90-126.4,170.5-231.7,180-231.7c38.3,0,287.3,233.7,381.1,358.2c114.9,151.3,272,463.5,316,628.2c155.1,588-5.8,1235.3-415.6,1672c-103.4,109.2-273.9,252.8-300.7,252.8C7655.8,4183.4,7579.1,4080,7494.9,3955.5z"/><path d="M6546.8,3605l-160.9-235.6l103.4-109.2c300.7-316,302.6-766.1,3.8-1076.4c-49.8-51.7-91.9-97.7-91.9-101.5c0-21.1,316-465.4,331.3-465.4c36.4,0,206.8,159,293,273.9c430.9,574.6,367.8,1344.5-153.2,1829.1c-70.9,65.1-136,118.8-145.5,118.8C6717.3,3838.6,6636.8,3733.3,6546.8,3605z"/><path d="M2584.2,678.5C1540.3,580.8,701.5-164.2,458.2-1208c-38.3-166.6-40.2-227.9-46-1873.1L404.6-4780h681.8h679.9v1618.4v1618.4H1977h210.7v-1618.4V-4780h1647.1h1647.1v1618.4v1618.4h210.7h210.7v-1618.4V-4780h679.9h679.9v1624.1c0,1727.6-3.8,1796.5-95.8,2129.8c-23,78.5-82.3,229.8-132.2,337.1C6702,8.1,6115.9,473.5,5351.7,642.1c-178.1,40.2-233.7,42.1-1392.4,47.9C3296.6,691.9,2676.1,686.1,2584.2,678.5z"/></g></g>
</svg>